<?xml version="1.0" encoding="utf-8"?>
<!-- Generator: Adobe Illustrator 27.0.0, SVG Export Plug-In . SVG Version: 6.00 Build 0)  -->
<svg version="1.1" id="Layer_1" xmlns="http://www.w3.org/2000/svg" xmlns:xlink="http://www.w3.org/1999/xlink" x="0px" y="0px"
	 viewBox="0 0 468 150" style="enable-background:new 0 0 468 150;" xml:space="preserve">
<style type="text/css">
	.st0{display:none;}
	.st1{stroke:#231F20;stroke-miterlimit:10;}
	.st2{fill:#FFFFFF;}
	.st3{fill:none;stroke:#FFFFFF;stroke-width:1.25;stroke-miterlimit:10;}
	.st4{fill:none;stroke:#FFFFFF;stroke-width:1.18;stroke-miterlimit:10;}
	.st5{font-family:'Helvetica-Bold';}
	.st6{font-size:9.1902px;}
	.st7{font-size:9.1435px;}
</style>
<g id="Layer_1_00000181074586513818149510000016088308630816609199_" class="st0">
</g>
<g id="Layer_2_00000154385678873874687300000007350876332941921209_">
	<rect x="-3.2" y="-2.2" class="st1" width="478.8" height="156"/>
</g>
<g id="Layer_3">
	<g>
		<path class="st2" d="M28.8,74.3h29.1V82H37.6v6.5h18.1v7.3H37.6v7.5h20.8v8H28.8V74.3z M30,110.2h27.2v-5.7H36.4v-9.7h18.1v-5.1
			H36.4v-8.8h20.3v-5.4H30V110.2z"/>
		<path class="st2" d="M95.6,96.3c0,5.8-3.8,15.8-16.7,15.8c-10.1,0-17.9-7.6-17.9-19.3s7.8-19.3,18.2-19.3c8.2,0,16,5.7,16,13.7
			h-8.6c-0.8-4-3.4-6.3-7.4-6.3c-4.3,0-9.4,3.1-9.4,12c0,8.9,5.1,12,9.1,12c6,0,7.9-5.1,7.9-8.4C86.8,96.3,95.6,96.3,95.6,96.3z
			 M88,97.5c0,0.9-1.2,8.4-9.1,8.4c-5.1,0-10.2-4.2-10.2-13.1c0-8.9,5.1-13.1,10.6-13.1c3.8,0,7.6,2.3,8.3,6.3h6.5
			c0-3.7-4.9-11.4-14.8-11.4c-9.3,0-17,6.6-17,18.2S70,111,78.9,111c13.5,0,15.3-11.4,15.5-13.5L88,97.5L88,97.5z"/>
		<path class="st2" d="M135.9,92.8c0,11.8-7.8,19.3-18.2,19.3s-18.2-7.6-18.2-19.3s7.8-19.3,18.2-19.3
			C128.1,73.5,135.9,81.1,135.9,92.8z M134.7,92.8c0-11.6-7.7-18.2-17-18.2s-17,6.6-17,18.2s7.7,18.2,17,18.2
			S134.7,104.4,134.7,92.8z M107,92.8c0-8.9,5.1-13.1,10.6-13.1c5.5,0,10.6,4.2,10.6,13.1c0,8.9-5.1,13.1-10.6,13.1
			C112.2,105.9,107,101.7,107,92.8z M127.1,92.8c0-8.9-5.1-12-9.4-12s-9.4,3.1-9.4,12c0,8.9,5.1,12,9.4,12
			C122,104.8,127.1,101.7,127.1,92.8z"/>
		<path class="st2" d="M163.7,82.3h-11.1v-8h31.1v8h-11.1v29h-8.8L163.7,82.3L163.7,82.3z M164.9,110.2h6.4v-29h11.1v-5.7h-28.7v5.7
			h11.1L164.9,110.2L164.9,110.2z"/>
		<path class="st2" d="M193.4,74.3h8.8l13.9,37h-9.4l-2.9-8.2h-12.5l-2.9,8.2h-9.1L193.4,74.3z M181.1,110.2h6.6l2.9-8.2h14.1
			l2.9,8.2h6.9l-13.1-34.7h-7.1L181.1,110.2z M203.4,97.5H192l5.8-15.6L203.4,97.5z M197.8,85.1h-0.1l-4,11.2h8.1L197.8,85.1z"/>
		<path class="st2" d="M211.9,74.3v8h11.1v29h1.2c0-0.1,0-0.1,0-0.2c0-0.2,0-0.5,0-0.7c0,0,0-0.1,0-0.1c0-0.1,0-0.1,0-0.2l0,0v-29
			h-11.1v-5.7h29.4v5.7h-11.8v29l0,0c0,0,0,0.1,0,0.1c0,0,0-0.1,0-0.1l0,0c0,0,0,0.1,0,0.1v0c0,0,0,0,0,0c0,0,0,0.1,0,0.1
			c0,0.1,0,0.1,0,0.2c0,0,0,0.1,0,0.1c0,0.1,0,0.1,0,0.1c0,0.1,0.1,0.1,0.1,0.2c0,0.1,0,0.1,0,0.2c0,0,0-0.1,0-0.1c0,0,0,0.1,0,0.1
			c0,0.1,0,0.1,0,0.2h1.2v-29H243v-8C243,74.3,211.9,74.3,211.9,74.3z"/>
		<path class="st2" d="M242.5,75.5l0.5-1.1h31.7l0,8h-11.1v29h-8.8v-29h-13.1l0.8-1.1 M243.6,81.2v-5.7 M243.4,75.6v5.7 M243.6,81.2
			H256v29h6.4v-29h11.1v-5.7h-29.9"/>
		<path class="st2" d="M312.5,92.8c0,11.8-7.8,19.3-18.2,19.3S276,104.6,276,92.8s7.8-19.3,18.2-19.3S312.5,81.1,312.5,92.8z
			 M311.3,92.8c0-11.6-7.7-18.2-17-18.2s-17,6.6-17,18.2s7.7,18.2,17,18.2S311.3,104.4,311.3,92.8z M283.6,92.8
			c0-8.9,5.1-13.1,10.6-13.1s10.6,4.2,10.6,13.1c0,8.9-5.1,13.1-10.6,13.1S283.6,101.7,283.6,92.8z M303.7,92.8c0-8.9-5.1-12-9.4-12
			s-9.4,3.1-9.4,12c0,8.9,5.1,12,9.4,12C298.6,104.8,303.7,101.7,303.7,92.8z"/>
		<path class="st2" d="M352.8,92.8c0,11.8-7.8,19.3-18.2,19.3s-18.2-7.6-18.2-19.3s7.8-19.3,18.2-19.3S352.8,81.1,352.8,92.8z
			 M351.6,92.8c0-11.6-7.7-18.2-17-18.2s-17,6.6-17,18.2s7.7,18.2,17,18.2S351.6,104.4,351.6,92.8z M323.9,92.8
			c0-8.9,5.1-13.1,10.6-13.1s10.6,4.2,10.6,13.1c0,8.9-5.1,13.1-10.6,13.1S323.9,101.7,323.9,92.8z M344,92.8c0-8.9-5.1-12-9.4-12
			s-9.4,3.1-9.4,12c0,8.9,5.1,12,9.4,12C338.9,104.8,344,101.7,344,92.8z"/>
		<path class="st2" d="M357.9,74.3h8.8v37h-8.8V74.3z M359.1,110.2h6.4V75.5h-6.4V110.2z"/>
		<path class="st2" d="M373.4,74.3h8.6l14.4,22.1h0.1V74.3h8.6v37h-8.8l-14.1-22.4H382v22.4h-8.6L373.4,74.3L373.4,74.3z
			 M374.6,110.2h6.2V84.9l16.1,25.3h6.9V75.5h-6.2v25l-16.2-25h-6.8L374.6,110.2L374.6,110.2z"/>
		<path class="st2" d="M428.8,90.9h16.1v20.3h-5.9l-0.9-3.4c-3.1,3.1-6.2,4.2-10.5,4.2c-9.7,0-17.5-7.6-17.5-19.3
			s7.8-19.3,18.2-19.3c8.2,0,16,5.7,16,13.7H436c-0.8-4-3.4-6.3-7.5-6.3c-4.4,0-9.4,3.1-9.4,12c0,8.9,5.1,12,9.4,12
			c4.3,0,8.4-2.4,8.4-6.9h-8.1L428.8,90.9L428.8,90.9z M440,110.2h3.8V92.1H430v4.6h8.1c0,5.8-3.7,9.2-9.6,9.2
			c-5.5,0-10.6-4.2-10.6-13.1c0-8.9,5.1-13.1,10.6-13.1c3.8,0,7.6,2.3,8.4,6.3h6.5c0-3.7-4.9-11.4-14.9-11.4c-9.3,0-17,6.6-17,18.2
			s7.7,18.2,16.3,18.2c5,0,7.8-1.6,11.1-5.3L440,110.2z"/>
	</g>
	<path class="st3" d="M226.3,122.1"/>
	<path class="st3" d="M232.6,122.1"/>
	<polyline class="st3" points="218.2,122.1 16.1,122.1 16.1,63.8 455.7,63.8 455.7,122.1 236.3,122.1 	"/>
	<line class="st3" x1="221" y1="122.1" x2="221" y2="122.1"/>
	<g>
		<path class="st2" d="M223.1,20.1c-0.2,0-0.4,0-0.5,0c-0.6,0.1-1.3,0.1-2,0.1c-0.2,0-0.4,0-0.7,0c-0.1,0-0.2,0-0.3,0.1
			c-0.9,0.5-1.7,1.1-2.6,1.6c-0.3,0.2-0.6,0.4-0.8,0.6c-0.1,0.1-0.2,0.1-0.3,0.2c-0.1,0.1-0.3,0.1-0.4,0c-0.1-0.1-0.2,0-0.3,0
			c-0.2,0.2-0.5,0.4-0.7,0.5c-0.1,0.1-0.2,0.2-0.3,0.3c-0.2,0.2-0.4,0.4-0.6,0.6c0,0-0.1,0.1-0.1,0.1c-0.4,0.4-0.7,0.8-1.1,1.2
			c-0.2,0.3-0.5,0.6-0.7,0.9c-0.4,0.5-0.7,1-1,1.6c-0.3,0.5-0.6,1.1-0.8,1.7c-0.2,0.5-0.4,1.1-0.6,1.6c-0.1,0.5-0.3,1-0.4,1.4
			c-0.1,0.4-0.1,0.8-0.2,1.3c-0.1,0.9-0.1,1.8-0.1,2.8c0,0.8,0.1,1.6,0.2,2.3c0.1,0.8,0.2,1.5,0.4,2.2c0.3,1.2,0.8,2.3,1.5,3.4
			c0.3,0.5,0.6,1,0.9,1.4c0.4,0.5,0.8,1,1.2,1.5c0.6,0.7,1.2,1.3,1.9,1.9c0.3,0.2,0.6,0.5,0.9,0.7c0.1,0.1,0.2,0.1,0.3,0.2
			c0.1,0,0.2,0.1,0.2,0.2c0.1,0.1,0.3,0.2,0.4,0.3c0.3,0.2,0.6,0.4,0.9,0.5c0.4,0.2,0.9,0.5,1.3,0.6c0.4,0.2,0.9,0.3,1.3,0.5
			c0.6,0.2,1.2,0.4,1.9,0.5c0.5,0.1,1,0.2,1.5,0.2c0.5,0.1,1,0.1,1.6,0.1c0.6,0,1.2,0,1.9,0c0.6,0,1.3-0.1,1.9-0.2
			c0.5-0.1,1-0.2,1.5-0.3c0.3-0.1,0.6-0.2,0.8-0.3c0.7-0.3,1.3-0.5,2-0.8c1.3-0.6,2.5-1.3,3.6-2.2c0.6-0.5,1.2-1.1,1.8-1.6
			c0.4-0.4,0.7-0.8,1.1-1.2c0.3-0.3,0.6-0.7,0.8-1c0,0,0.1-0.1,0.1-0.1c0.1-0.1,0.2-0.1,0.3,0c0.1,0.1,0.1,0.2,0,0.3
			c0,0,0,0.1-0.1,0.1c-0.5,0.7-1.1,1.4-1.6,2c-0.4,0.4-0.8,0.8-1.2,1.2c-0.5,0.5-1,0.9-1.6,1.3c-0.9,0.7-1.9,1.3-3,1.8
			c-0.6,0.3-1.2,0.5-1.9,0.7c-0.3,0.1-0.6,0.2-0.9,0.3c-0.5,0.1-1.1,0.3-1.6,0.4c-0.3,0.1-0.7,0.1-1,0.2c-0.9,0.1-1.7,0.2-2.6,0.1
			c-0.9,0-1.9-0.1-2.8-0.2c-0.8-0.1-1.6-0.3-2.4-0.6c-0.4-0.1-0.7-0.2-1.1-0.4c-0.5-0.2-1-0.5-1.5-0.7c-0.2-0.1-0.5-0.2-0.7-0.4
			c-0.2-0.1-0.3-0.2-0.5-0.3c-0.2-0.2-0.5-0.3-0.7-0.5c-0.2-0.2-0.5-0.4-0.7-0.5c-1.1-0.9-2.1-1.9-3-3c-0.3-0.3-0.6-0.7-0.8-1.1
			c-0.7-1.1-1.4-2.2-1.9-3.4c-0.3-0.6-0.5-1.3-0.6-2c-0.1-0.5-0.2-1-0.3-1.4c-0.1-0.5-0.1-1-0.2-1.5c0-0.6-0.1-1.2-0.1-1.8
			c0-0.5,0-1,0-1.5c0-0.2,0-0.3,0.1-0.5c0.1-0.6,0.1-1.2,0.2-1.8c0.1-0.5,0.3-1.1,0.4-1.6c0.1-0.4,0.3-0.9,0.4-1.3
			c0.4-0.8,0.8-1.7,1.2-2.4c0.2-0.3,0.4-0.6,0.6-1c0.1-0.2,0.3-0.4,0.4-0.5c0.4-0.5,0.8-0.9,1.2-1.3c0.4-0.4,0.8-0.8,1.2-1.2
			c0.2-0.2,0.4-0.3,0.6-0.5c0.1-0.1,0.3-0.2,0.5-0.3c0,0,0.1-0.1,0.1-0.1c0-0.2,0.1-0.3,0.3-0.4c0.4-0.3,0.8-0.5,1.2-0.8
			c0.6-0.4,1.2-0.7,1.8-1.1c0.2-0.1,0.5-0.3,0.7-0.4c0.1,0,0.1-0.1,0.2-0.2c0.1-0.3,0.2-0.6,0.3-0.9c0.1-0.1,0-0.2-0.1-0.4
			c-0.2-0.2-0.4-0.5-0.6-0.8c-0.1-0.2-0.2-0.4-0.2-0.7c0-0.4-0.1-0.9-0.1-1.3c0-0.2,0-0.3,0.2-0.3c0,0,0,0,0.1,0
			c0.1-0.1,0.2-0.1,0.1-0.3c-0.1-0.1-0.1-0.2,0-0.3c0.2-0.4,0.4-0.6,0.8-0.7c0.2-0.1,0.4,0,0.5,0.2c0.2,0.3,0.1,0.3,0.5,0.1
			c0.6-0.3,1.2-0.7,1.8-1c0,0,0.1,0,0.1,0c0.1-0.1,0.1-0.1,0-0.2c0-0.1-0.1-0.1-0.1-0.2c-0.1-0.1-0.1-0.2,0-0.4
			c0.2-0.4,0.5-0.6,0.9-0.8c0.2-0.1,0.4,0,0.5,0.2c0.1,0.1,0.1,0.2,0.2,0.2c0.1,0.1,0.1,0.1,0.2,0c0.2-0.2,0.4-0.3,0.6-0.5
			c0.1-0.1,0.2-0.1,0.3-0.2c0.1-0.1,0.1-0.1,0.1-0.2c0-0.3,0-0.6,0-0.9c0-0.3,0-0.5,0-0.8c0-0.3,0.1-0.6,0.3-0.8
			c0.1-0.1,0.1-0.1,0.1-0.2c0-0.1,0-0.1-0.1-0.1c-0.1,0-0.2,0-0.3,0c-0.5,0-1.1-0.1-1.6-0.1c-0.3,0-0.5,0-0.8,0
			c-0.1,0-0.2,0-0.2,0.1c0,0.1-0.1,0.1-0.2,0.1c0,0-0.1,0-0.1-0.1c-0.1-0.1-0.2-0.1-0.3,0c-0.1,0.1-0.2,0.1-0.2,0
			c0,0-0.1-0.1-0.1-0.1c-0.1-0.1-0.2,0-0.2,0.1c-0.1,0.1-0.1,0.1-0.2,0.1s-0.2,0-0.3,0c-0.1,0-0.1,0-0.1-0.1
			c-0.2-0.2-0.4-0.4-0.4-0.7c0-0.2,0-0.4,0.1-0.6c0.1-0.2,0.2-0.3,0.5-0.3c0.1,0,0.1,0,0.2,0c0.1,0,0.2,0.1,0.2,0.2s0.1,0.1,0.2,0.1
			c0,0,0,0,0,0c0.2-0.1,0.2-0.1,0.4,0c0.1,0.1,0.2,0.1,0.3,0c0.2-0.1,0.2-0.1,0.2,0.1c0,0.1,0.1,0.1,0.1,0.1s0.2,0,0.3,0
			c0.8,0,1.6,0,2.4,0.1c0,0,0,0,0,0c0.2,0,0.2,0,0.2-0.2c0.1-0.3,0.1-0.6,0.1-0.8c0-0.2,0.1-0.4,0.2-0.6c0.2-0.3,0.4-0.4,0.8-0.4
			c0.6,0,0.9,0.5,0.9,0.9c0,0.2,0,0.5-0.1,0.7c0,0.1,0,0.2-0.1,0.3c0,0.2,0,0.2,0.2,0.2c0.1,0,0.2,0,0.4,0c0.1,0,0.3,0.1,0.4,0.1
			c0.1,0.1,0.2,0.2,0.2,0.3c0.1,0.2,0,0.4-0.1,0.5c-0.3,0.4-0.6,0.7-0.8,1.1c0,0-0.1,0.1-0.1,0.1c0.1,0,0.1,0,0.2-0.1
			c0.4-0.2,0.8-0.5,1.2-0.8c0.1-0.1,0.3-0.2,0.4-0.3c0.1-0.1,0.2-0.1,0.4,0c0.1,0.1,0.1,0.1,0.3,0c0.1-0.1,0.2-0.1,0.3-0.2
			c0.1-0.1,0.2-0.1,0.4,0c0.1,0.1,0.2,0.2,0.3,0.3c0.1,0.2,0.1,0.4-0.1,0.6c-0.1,0-0.1,0.1-0.1,0.1c-0.1,0.1-0.1,0.1,0,0.2
			c0.2,0.3,0.4,0.5,0.6,0.8c0.2,0.3,0.5,0.7,0.7,1c0.5,0.6,1,1.3,1.5,1.9c0,0,0,0,0.1,0.1c0.1,0.1,0.1,0.1,0.2,0
			c0.2-0.1,0.5-0.1,0.7-0.1c0.1,0,0.2,0.1,0.2,0.1c0.2,0.2,0.4,0.5,0.6,0.7c0,0,0,0,0.1,0.1c0.1,0.1,0.1,0.1,0.2,0.1
			c0.3-0.1,0.5-0.3,0.8-0.4c0.5-0.2,1-0.1,1.4,0.3c0.1,0.1,0.1,0.1,0.2,0.1c0.1-0.1,0.2-0.1,0.1-0.3c-0.3-0.3-0.5-0.5-0.8-0.8
			c-0.1-0.1-0.2-0.2-0.2-0.4c0-0.2,0.1-0.3,0.2-0.4c0.1-0.1,0.3-0.1,0.4,0c0.4,0.4,0.8,0.8,1.1,1.1c0.1,0.1,0.1,0.1,0.2,0
			c0.1,0,0.1-0.1,0.2-0.1c0.2-0.1,0.4-0.1,0.5,0c0.3,0.2,0.5,0.5,0.6,0.8c0,0.1,0.1,0.2,0.1,0.3c0,0.1,0,0.2,0,0.3
			c-0.1,0.1,0,0.1,0,0.1c0.1,0.1,0.1,0.1,0.2,0.2c0.2,0.2,0.5,0.5,0.7,0.7c0,0,0.1,0,0.1,0.1c0.1,0.1,0.2,0.3,0.1,0.5
			c-0.1,0.2-0.2,0.3-0.4,0.4c-0.1,0-0.2,0-0.3-0.1c0,0-0.1-0.1-0.1-0.1c-0.3-0.3-0.6-0.7-1-1c-0.1-0.1-0.1-0.1-0.3,0
			c-0.2,0.2-0.5,0.3-0.7,0.5c-0.1,0-0.1,0.1-0.2,0.2c0.1,0.1,0.2,0,0.3,0.1c0.1,0,0.2,0,0.3,0c0.1,0,0.2,0.1,0.3,0.2
			c0.3,0.4,0.5,0.7,0.8,1.1c0.1,0.1,0.1,0.2,0.1,0.2c0,0.1,0.1,0.2,0.2,0.3c0.1,0.1,0.2,0.1,0.2,0.2c0.1,0.1,0.2,0.2,0.2,0.4
			c0,0.1,0.1,0.2,0.2,0.2c0.1,0,0.2,0.1,0.2,0.1c0.2,0.2,0.4,0.4,0.6,0.7c0.1,0.1,0.1,0.2,0.1,0.3c0,0.2,0,0.1,0.1,0.2
			c0.1,0,0.2,0.1,0.2,0.1c0.1,0.1,0.1,0.1,0.2,0.2c0.1,0.1,0.2,0.2,0.2,0.4c0,0.1,0,0.1,0.2,0.2c0.1,0,0.1,0.1,0.2,0.1
			c0.2,0.2,0.4,0.5,0.6,0.7c0.1,0.1,0.1,0.2,0.1,0.3c0,0,0,0.1,0,0.2c0,0.1,0,0.2,0.1,0.2c0.1,0,0.2,0.1,0.3,0.2
			c0.1,0.1,0.1,0.1,0.1,0.2c0.1,0.1,0.1,0.2,0.2,0.4c0,0.1,0,0.2,0.2,0.2c0.1,0,0.2,0.1,0.3,0.2c0.2,0.3,0.4,0.5,0.6,0.8
			c0,0,0,0,0.1,0.1c0.4,0.4,0.4,0.9,0.2,1.4c-0.1,0.3-0.3,0.5-0.5,0.8c-0.1,0.1-0.1,0.2,0,0.3c0.3,0.4,0.6,0.8,0.9,1.1
			c0.2,0.3,0.4,0.6,0.6,0.9c0.1,0.2,0.2,0.4,0.3,0.7c0.2,0.5,0.3,1,0.5,1.5c0.1,0.2,0.2,0.5,0.3,0.7c0.1,0.2,0.3,0.4,0.4,0.6
			c0.2,0.2,0.3,0.4,0.5,0.7c0,0,0,0,0.1,0.1c0.1,0.2,0.1,0.4-0.2,0.4c-0.1,0-0.2,0-0.2-0.1c-0.1-0.2-0.3-0.4-0.4-0.6
			c-0.2-0.2-0.3-0.4-0.5-0.6c-0.2-0.2-0.4-0.4-0.7-0.5c-0.5-0.4-1-0.8-1.6-1.1c-0.2-0.2-0.4-0.4-0.5-0.6c-0.3-0.5-0.6-0.9-1-1.4
			c-0.1-0.1-0.2-0.3-0.3-0.5c-0.1-0.1-0.1-0.1-0.2-0.1c-0.2,0.1-0.4,0.2-0.6,0.2c-0.4,0.1-0.7,0-1.1,0c-0.2,0-0.3-0.1-0.5-0.3
			c-0.2-0.3-0.5-0.6-0.8-1c-0.1-0.1-0.1-0.3-0.1-0.4c0-0.1,0-0.2-0.1-0.2c-0.2,0-0.3-0.1-0.4-0.2c0,0-0.1-0.1-0.1-0.1
			c-0.1-0.1-0.1-0.2-0.1-0.4c0-0.1,0-0.2-0.2-0.2c-0.2,0-0.3-0.1-0.4-0.2c-0.1-0.2-0.3-0.4-0.4-0.6c-0.1-0.1-0.1-0.2-0.1-0.3
			c0-0.1-0.1-0.2-0.1-0.2c-0.2,0-0.3-0.1-0.4-0.3c-0.1-0.1-0.1-0.2-0.1-0.2c-0.1-0.1-0.1-0.2-0.1-0.3c0-0.1,0-0.1-0.1-0.2
			c0,0-0.1,0-0.1,0c-0.1,0-0.2-0.1-0.3-0.2c-0.1-0.2-0.2-0.4-0.4-0.5c-0.1-0.1-0.1-0.2-0.1-0.3c0-0.1,0-0.1-0.1-0.2
			c-0.1,0-0.2-0.1-0.3-0.2c-0.1-0.1-0.1-0.2-0.2-0.3c-0.1-0.1-0.1-0.2-0.1-0.3c0-0.1,0-0.1-0.1-0.2c-0.2,0-0.3-0.2-0.4-0.3
			c-0.2-0.2-0.3-0.5-0.5-0.8c-0.2-0.2-0.2-0.4-0.1-0.6c0-0.2,0.1-0.3,0.2-0.5c0-0.1,0-0.2,0-0.3c-0.1-0.1-0.2-0.2-0.2-0.4
			c-0.1-0.1-0.1-0.2-0.1-0.2c0-0.1,0-0.1-0.1-0.2c-0.1-0.1-0.1-0.2-0.2-0.3c-0.1-0.1-0.1-0.1-0.2-0.1c-0.5,0.3-1.1,0.5-1.5,1
			c-0.1,0.1-0.2,0.3-0.4,0.4c-0.4,0.5-0.8,0.9-1.3,1.3c-0.3,0.2-0.6,0.4-1,0.6c-0.6,0.3-1.2,0.6-1.8,0.9c-0.4,0.2-0.8,0.4-1.2,0.6
			c-0.2,0.1-0.4,0.1-0.5,0.1c-0.2,0-0.4,0-0.5,0c-0.4,0-0.7,0-1,0.2c-0.2,0.1-0.5,0.2-0.8,0.3c-0.4,0.1-0.7,0-1-0.2
			c-0.3-0.2-0.6-0.6-0.7-1c-0.1-0.2-0.1-0.4,0-0.6c0-0.2,0.1-0.4,0.2-0.6C223.1,20.2,223.1,20.2,223.1,20.1z M243.7,22.5
			c0-0.1,0-0.2-0.1-0.4c-0.1-0.2-0.3-0.4-0.4-0.5c-0.1-0.1-0.1-0.1-0.3-0.1c-0.2,0-0.2-0.1-0.2-0.2c0,0,0-0.1,0-0.1
			c0-0.1,0-0.2-0.1-0.3c0,0-0.1-0.1-0.1-0.1c-0.1-0.1-0.2-0.2-0.3-0.2c-0.1,0-0.2-0.1-0.2-0.2c0-0.1,0-0.1,0-0.2
			c0-0.1,0-0.2-0.1-0.3c-0.1-0.2-0.3-0.4-0.4-0.5c-0.1-0.1-0.1-0.1-0.2-0.1c-0.2-0.1-0.2-0.1-0.3-0.3c0-0.1-0.1-0.2-0.2-0.3
			c-0.1-0.1-0.2-0.1-0.3-0.2c-0.1-0.1-0.2-0.2-0.2-0.4c0-0.1,0-0.2-0.1-0.2c-0.2-0.3-0.5-0.6-0.7-0.9c-0.1-0.1-0.2-0.2-0.3-0.2
			c-0.1,0-0.2,0-0.3,0c-0.4,0-0.8,0-1.1,0.2c-0.6,0.3-1.2,0.7-1.7,1.3c-0.2,0.2-0.4,0.5-0.5,0.8c-0.1,0.2-0.2,0.4-0.2,0.6
			c0,0.1,0,0.2,0.1,0.3c0.2,0.3,0.4,0.5,0.6,0.8c0.1,0.1,0.2,0.2,0.3,0.2c0.3,0.1,0.3,0.1,0.2,0.4c0,0.1,0,0.1,0,0.2
			c0.1,0.2,0.2,0.4,0.5,0.4c0,0,0,0,0.1,0c0.1,0,0.1,0.1,0.1,0.2c0,0,0,0.1,0,0.1c-0.1,0.1,0,0.2,0.1,0.3c0.1,0.1,0.2,0.3,0.3,0.4
			c0.1,0.1,0.2,0.2,0.3,0.2c0.1,0,0.2,0,0.2,0.1c0.1,0,0.1,0.1,0.1,0.2c0,0,0,0.1,0,0.1c0,0.1,0,0.2,0,0.3c0,0,0.1,0.1,0.1,0.1
			c0.1,0.2,0.2,0.2,0.4,0.3c0.2,0,0.2,0.1,0.2,0.3c0,0.1,0,0.2,0.1,0.3c0.1,0.2,0.3,0.4,0.4,0.6c0.1,0.1,0.1,0.1,0.2,0.2
			c0.1,0,0.1,0,0.2,0c0.1,0,0.1,0.1,0.1,0.2c0,0,0,0,0,0.1c-0.1,0.2,0.1,0.4,0.2,0.6c0,0,0.1,0,0.1,0c0.1,0,0.1,0,0.2,0
			c0.2,0,0.2,0.1,0.2,0.3c0,0.1,0,0.1-0.1,0.2c0,0.1,0,0.2,0.1,0.2c0.2,0.3,0.4,0.6,0.7,0.9c0.1,0.2,0.3,0.3,0.6,0.3
			c0,0,0.1,0,0.1,0c0.3,0.1,0.6,0,0.9-0.1c0.2-0.1,0.2-0.1,0.1-0.2c-0.1-0.2-0.1-0.3,0-0.5c0.1-0.1,0.1-0.2,0.2-0.2
			c0.2-0.2,0.5-0.4,0.8-0.6c0.2-0.1,0.4-0.2,0.6-0.3c0.2-0.1,0.4-0.1,0.5,0.1c0.1,0.1,0.1,0.1,0.2,0c0.1-0.2,0.2-0.3,0.3-0.5
			c0.1-0.2,0.1-0.5,0.1-0.8c0-0.1-0.1-0.2-0.1-0.2c-0.2-0.3-0.5-0.6-0.7-0.9c-0.1-0.1-0.2-0.2-0.4-0.2c-0.1,0-0.2-0.1-0.2-0.2
			c0-0.1,0-0.1,0-0.2c0-0.3-0.2-0.4-0.4-0.6c0,0-0.1,0-0.1,0C243.7,22.8,243.7,22.8,243.7,22.5z M229.4,16.8c0-0.1-0.1-0.2-0.2-0.3
			c-0.5-0.7-1-1.4-1.4-2c-0.4-0.6-0.8-1.1-1.2-1.7c-0.1-0.2-0.3-0.3-0.5-0.3c-0.3-0.1-0.6,0-0.9,0.1c-0.7,0.3-1.3,0.7-1.8,1.3
			c-0.2,0.3-0.4,0.6-0.5,0.9c-0.1,0.2,0,0.4,0.1,0.6c0.4,0.6,0.7,1.1,1.1,1.7c0.5,0.7,1,1.3,1.4,2c0.1,0.2,0.3,0.4,0.5,0.6
			c0.1,0,0.1,0.1,0.2,0.1c0,0,0-0.1,0-0.1c0-0.2,0-0.5,0.1-0.7c0.1-0.2,0.2-0.4,0.3-0.5c0.3-0.5,0.7-0.8,1.1-1.1
			c0.4-0.3,0.9-0.5,1.4-0.5C229.2,16.8,229.2,16.8,229.4,16.8z M233.2,14.4c0-0.1-0.1-0.1-0.1-0.1c-0.4-0.5-0.8-1-1.1-1.5
			c-0.6-0.8-1.2-1.5-1.8-2.3c-0.1-0.1-0.2-0.2-0.3-0.2c-0.2,0-0.4,0-0.6,0c-0.6,0.1-1.1,0.4-1.6,0.8c-0.2,0.2-0.4,0.4-0.6,0.6
			c-0.2,0.2-0.3,0.4-0.4,0.6c-0.1,0.1,0,0.2,0,0.3c0.1,0.1,0.2,0.3,0.4,0.5c0.4,0.6,0.8,1.1,1.2,1.7c0.4,0.6,0.9,1.2,1.3,1.8
			c0,0.1,0.1,0.1,0.2,0.1c0,0,0-0.1,0.1-0.1c0.1-0.2,0.2-0.4,0.4-0.6c0.5-0.5,1.1-1,1.7-1.3c0.4-0.2,0.8-0.3,1.2-0.3
			C233.1,14.5,233.2,14.4,233.2,14.4z M223.2,21c-0.1,0.1,0,0.2,0,0.2c0.2,0.4,0.6,0.7,1,0.7c0.3,0,0.6-0.1,0.9-0.3
			c0.2-0.1,0.4-0.2,0.6-0.2c0.2,0,0.3,0,0.5,0c0.1,0,0.2-0.1,0.3-0.2c0.1-0.1,0.1-0.2,0.1-0.3c0-0.2,0-0.4,0-0.6
			c0-0.1,0-0.2-0.1-0.2c-0.4,0-0.6-0.2-0.9-0.5c-0.2-0.2-0.3-0.4-0.5-0.6c-0.4-0.5-0.8-1.1-1.2-1.6s-0.8-1.1-1.1-1.7
			c-0.1-0.2-0.1-0.2-0.3-0.1c-0.4,0.2-0.8,0.5-1.2,0.7c-0.1,0.1-0.2,0.2-0.2,0.3c-0.1,0.3-0.2,0.6-0.3,0.9c-0.1,0.2-0.1,0.4-0.2,0.6
			c-0.1,0.1,0,0.2,0.1,0.2c0.2,0,0.4,0,0.6,0c0.1,0,0.3-0.1,0.4-0.1c0.3,0,0.6,0,0.9,0.1c0.3,0.1,0.6,0.3,0.8,0.6
			c0.1,0.1,0.1,0.1,0.3,0c0.2-0.1,0.4-0.1,0.6-0.1c0.5,0,0.8,0.3,0.9,0.8c0,0.1,0,0.2,0,0.3c0,0.3,0,0.6,0,0.9
			c0,0.5-0.3,0.8-0.8,0.9c-0.5,0.1-0.9-0.1-1.2-0.6C223.2,21.1,223.2,21.1,223.2,21z M223.4,22C223.4,22,223.4,22,223.4,22
			c0,0.1,0,0.1,0.1,0.1c0.1,0.1,0.2,0.1,0.2,0.2c0.2,0.2,0.4,0.2,0.7,0.2c0.2,0,0.5-0.1,0.7-0.2c0.4-0.2,0.8-0.3,1.2-0.3
			c0.1,0,0.1,0,0.2,0c0.4,0,0.6-0.2,0.6-0.7c0-0.3,0.1-0.6,0.1-0.9c0.1-0.3,0.2-0.5,0.4-0.7c0.1-0.1,0.2-0.2,0.4-0.3
			c0.3-0.2,0.7-0.4,1-0.6c0.5-0.3,1.1-0.6,1.6-0.9c0.5-0.3,1.1-0.6,1.6-0.9c0.6-0.4,1.3-0.7,1.9-1.1c0.7-0.4,1.4-0.7,2.1-1.1
			c0.2-0.1,0.4-0.2,0.7-0.3s0.4-0.1,0.6,0.1c0.2,0.1,0.3,0.3,0.4,0.5c0.1,0.1,0.1,0.3,0,0.5c-0.1,0.1-0.2,0.2-0.3,0.2
			c-0.2,0.1-0.5,0.3-0.7,0.4c-0.6,0.3-1,0.6-1.4,1.1c-0.1,0.1-0.2,0.3-0.3,0.4c0,0,0,0.1,0,0.1c0.1,0.1,0.1,0.2,0.2,0.3
			c0,0,0.1,0,0.1,0c0,0,0,0,0.1-0.1c0.1-0.2,0.3-0.4,0.5-0.6c0.5-0.5,1.1-0.8,1.7-1.1c0.1-0.1,0.3-0.1,0.4-0.2
			c0.1-0.1,0.2-0.1,0.2-0.2c0.1-0.3,0.1-0.6,0-0.9c-0.1-0.3-0.4-0.5-0.6-0.8c-0.1-0.1-0.2-0.2-0.4-0.2c-0.3-0.1-0.6,0-0.8,0.1
			c-0.3,0.2-0.7,0.3-1,0.5c-0.7,0.4-1.3,0.8-2,1.1c-0.3,0.1-0.6,0.3-0.9,0.5c-0.9,0.5-1.8,1-2.6,1.5c-0.6,0.4-1.3,0.7-1.9,1.1
			c-0.4,0.2-0.7,0.5-1,0.8c-0.1,0.2-0.2,0.4-0.2,0.6c0,0.3-0.1,0.5-0.1,0.8c0,0.1,0,0.2,0,0.2c-0.1,0.2-0.2,0.5-0.6,0.5
			c-0.1,0-0.3,0-0.4,0s-0.3,0-0.4,0.1c-0.1,0.1-0.2,0.2-0.4,0.2c-0.5,0.3-1,0.3-1.5,0C223.5,22,223.5,22,223.4,22z M230.1,9.1
			C230.1,9,230.1,9,230.1,9.1c-0.1-0.1-0.2-0.2-0.2-0.3c-0.1-0.2-0.2-0.2-0.4-0.1c-1.1,0.7-2.1,1.4-3.2,2.1
			c-0.9,0.6-1.9,1.2-2.9,1.7c-0.2,0.1-0.5,0.3-0.7,0.4c-0.1,0.1-0.1,0.1-0.1,0.2c0.1,0.1,0.1,0.2,0.2,0.3c0.1,0.1,0.1,0.2,0.3,0.1
			c0.4-0.3,0.9-0.6,1.3-0.9c0.9-0.6,1.8-1.1,2.6-1.7c0.8-0.5,1.6-1,2.4-1.5C229.7,9.3,229.9,9.2,230.1,9.1
			C230.1,9.1,230.1,9.1,230.1,9.1z M230,17c0,0.3,0.1,0.4,0.3,0.2l0,0c0.9-0.5,1.8-1,2.7-1.5c0.2-0.1,0.3-0.3,0.4-0.5
			c0.1-0.2,0-0.4-0.3-0.5c-0.1,0-0.2,0-0.4,0c-0.2,0-0.4,0.1-0.6,0.2c-0.8,0.4-1.4,0.9-2,1.5C230.1,16.6,230.1,16.8,230,17z
			 M234.6,16.8c0,0.1,0.1,0.1,0.1,0.2c0.1,0.1,0.2,0.3,0.3,0.4c0.1,0.2,0.1,0.2,0.3,0c0.3-0.4,0.7-0.8,1.2-1.1
			c0.3-0.2,0.6-0.3,0.8-0.5c0.1-0.1,0.1-0.1,0-0.2c-0.1-0.2-0.3-0.4-0.5-0.6c-0.1-0.1-0.1-0.1-0.2-0.1c-0.2,0.1-0.4,0.2-0.6,0.3
			c-0.3,0.2-0.7,0.3-0.9,0.6c-0.2,0.2-0.4,0.4-0.5,0.6C234.6,16.5,234.6,16.6,234.6,16.8z M230.6,9.6C230.6,9.6,230.6,9.6,230.6,9.6
			c-0.1,0.1-0.1,0.1-0.1,0.2c0,0.1,0,0.3-0.1,0.4c0,0.1,0,0.1,0,0.1c0.1,0.1,0.1,0.2,0.2,0.3c0.7,0.9,1.4,1.9,2.2,2.8
			c0.1,0.2,0.3,0.3,0.4,0.5c0.1,0.1,0.1,0.1,0.2,0c0.1-0.1,0.1-0.2,0.2-0.3c0.1-0.1,0.1-0.1,0-0.3c-0.6-0.8-1.3-1.7-1.9-2.5
			C231.3,10.5,231,10.1,230.6,9.6C230.7,9.6,230.6,9.6,230.6,9.6z M226.5,19.4c0,0.1,0,0.2,0.1,0.3c0,0.1,0.1,0.1,0.1,0.1
			c0,0,0.1-0.1,0.1-0.1c0.2-0.3,0.4-0.5,0.6-0.8c0.5-0.4,1.1-0.7,1.7-1.1c0.2-0.1,0.4-0.2,0.6-0.3c0.1,0,0.1-0.1,0.1-0.2
			c-0.1-0.2-0.3-0.3-0.5-0.3c-0.3,0-0.6,0.1-0.8,0.2c-0.4,0.2-0.7,0.4-1.1,0.7c-0.3,0.3-0.6,0.6-0.8,1.1
			C226.6,19.1,226.5,19.3,226.5,19.4z M226.1,6.6C226,6.8,226,7,226,7.1c0,0.1,0,0.1,0.1,0.2c0.1,0.2,0.1,0.3,0.1,0.5
			c0,0.1-0.1,0.2-0.1,0.2c0,0.1-0.1,0.1-0.1,0.1c0,0.2,0,0.4-0.1,0.6c0,0.1,0,0.2,0.1,0.3c0.2,0.3,0.7,0.3,1,0.2
			c0.1,0,0.1-0.1,0.1-0.1c0.1-0.3,0.1-0.6,0.2-1c0-0.1,0-0.1,0-0.2c-0.1-0.2,0-0.4,0.1-0.6s0.1-0.4,0.1-0.6c0,0,0,0,0,0
			C226.9,6.9,226.5,7,226.1,6.6z M238.8,15.8c0.1,0,0.1,0,0.1,0c0.2-0.1,0.4-0.2,0.6-0.4c0.1-0.1,0.1-0.1,0.1-0.2
			c0-0.2,0.1-0.4,0.3-0.6c0.1-0.1,0.2-0.1,0.4-0.1c0.1,0,0.1-0.1,0.1-0.2c-0.1-0.2-0.2-0.4-0.4-0.6c-0.1-0.1-0.2-0.1-0.3,0
			c-0.3,0.2-0.6,0.3-0.9,0.5c-0.1,0.1-0.2,0.1-0.3,0.2c-0.1,0.1-0.1,0.1,0,0.2c0,0,0.1,0.1,0.1,0.1c0.2,0.2,0.3,0.5,0.3,0.9
			C238.7,15.6,238.7,15.7,238.8,15.8z M225,19.9c-0.5,0.4-0.9,0.4-1.4,0c-0.1,0.1-0.1,0.2-0.1,0.2c0,0.2-0.1,0.5-0.1,0.7
			c0,0.1,0,0.2,0.1,0.3c0.2,0.3,0.5,0.5,0.9,0.4c0.4-0.1,0.5-0.3,0.6-0.6c0-0.3,0-0.6,0-0.8C225,20,225,20,225,19.9z M234.5,13.4
			c-0.4,0-0.7,0.2-0.9,0.5c-0.1,0.1-0.1,0.2,0,0.3c0.2,0.2,0.3,0.4,0.5,0.7c0.1,0.2,0.1,0.2,0.3,0.1c0.2-0.1,0.5-0.3,0.7-0.4
			c0.1,0,0.2-0.1,0.2-0.1c0.1-0.1,0.1-0.1,0.1-0.2c-0.2-0.2-0.4-0.5-0.6-0.7C234.8,13.5,234.6,13.4,234.5,13.4z M226.8,6.7
			c0.2,0,0.3,0,0.4-0.1c0.2-0.1,0.3-0.3,0.2-0.5c0-0.2-0.1-0.3-0.2-0.5c-0.1-0.1-0.2-0.2-0.3-0.2c-0.2-0.1-0.5,0-0.7,0.2
			c-0.2,0.2-0.2,0.5-0.1,0.8c0.1,0.2,0.2,0.3,0.4,0.3C226.7,6.7,226.8,6.7,226.8,6.7z M222.5,13.3c0-0.1-0.1-0.2-0.2-0.2
			c0,0-0.1,0-0.1,0.1c-0.8,0.4-1.5,0.8-2.2,1.2c-0.3,0.2-0.6,0.3-0.9,0.5c-0.1,0.1-0.1,0.1-0.1,0.2c0.1,0.1,0.1,0.1,0.2,0.1
			c0.3-0.2,0.6-0.3,0.9-0.5c0.7-0.4,1.4-0.8,2.1-1.2C222.3,13.5,222.4,13.4,222.5,13.3C222.5,13.4,222.5,13.3,222.5,13.3z
			 M222.8,19.1c-0.2-0.1-0.4-0.2-0.7-0.2c-0.1,0-0.3,0-0.5,0.1c-0.4,0-0.7,0-1-0.2c-0.1,0-0.1,0-0.2-0.1c-0.1,0.2-0.2,0.4-0.2,0.6
			C221.1,19.4,222,19.3,222.8,19.1z M222.6,12.1c0.1,0.1,0.1,0.2,0.2,0.3c0.1,0.1,0.1,0.1,0.2,0.1c0.3-0.1,0.5-0.3,0.8-0.5
			c0.1-0.1,0.1-0.1,0-0.2c-0.1-0.1-0.1-0.2-0.2-0.3c-0.1-0.1-0.1-0.1-0.2-0.1c-0.3,0.1-0.5,0.3-0.6,0.5
			C222.6,12,222.6,12.1,222.6,12.1z M241.2,16c0,0-0.1-0.1-0.1-0.1c-0.2-0.2-0.4-0.4-0.6-0.6c-0.1-0.1-0.3-0.3-0.4-0.4
			c-0.1-0.1-0.1-0.1-0.2,0c-0.2,0.1-0.2,0.3-0.1,0.4c0.3,0.3,0.6,0.6,0.9,0.9c0,0,0.1,0,0.1,0C240.9,16.3,241.2,16,241.2,16z
			 M224.3,19.9c0.3,0,0.5-0.1,0.6-0.4c0.1-0.2,0-0.3-0.1-0.4c-0.2-0.1-0.6-0.2-0.9,0.1c-0.1,0.1-0.1,0.2-0.1,0.4
			C223.9,19.9,224.1,19.9,224.3,19.9z M225.8,10.7C225.8,10.7,225.8,10.7,225.8,10.7c0.1,0,0.2,0,0.3-0.1c0.3-0.2,0.5-0.3,0.8-0.5
			c0.3-0.4,0.7-0.7,1-1.1c0.1-0.1,0.2-0.3,0.4-0.5c0,0,0-0.1,0-0.1c0,0,0,0,0,0c0,0-0.1,0.1-0.1,0.1C227.3,9.2,226.6,10,225.8,10.7z
			 M223.5,19.2c0-0.1-0.1-0.2-0.2-0.2c-0.1-0.1-0.3-0.2-0.4-0.3c-0.4-0.2-0.7-0.3-1.1-0.2c-0.3,0.1-0.6,0.1-1,0.1c0,0-0.1,0-0.1,0
			c0.1,0,0.1,0.1,0.1,0.1c0.1,0,0.2,0.1,0.4,0.1c0.3,0,0.5,0,0.8,0c0.5-0.1,0.9,0,1.2,0.4C223.3,19.1,223.4,19.2,223.5,19.2z
			 M238.9,13.7c0,0-0.1-0.1-0.1-0.1c-0.3-0.3-0.6-0.6-1-0.9c0,0,0,0-0.1-0.1c-0.1-0.1-0.1,0-0.2,0c-0.1,0.1-0.1,0.2,0,0.3
			c0.1,0.1,0.3,0.3,0.4,0.4c0.2,0.1,0.3,0.3,0.5,0.4C238.7,13.9,238.8,13.9,238.9,13.7C238.9,13.8,238.9,13.8,238.9,13.7z M219,14.4
			c0,0.2,0.1,0.3,0.3,0.2c0.2-0.1,0.4-0.2,0.6-0.3c0.2-0.1,0.2-0.1,0.1-0.3l0,0c-0.1-0.1-0.2-0.1-0.3-0.1
			C219.4,13.8,219.2,14,219,14.4C219,14.3,219,14.3,219,14.4z M226.6,9.6c-0.2-0.1-0.3-0.1-0.5-0.1s-0.3-0.1-0.4-0.3
			s-0.1-0.3-0.2-0.4c0,0,0,0,0,0c-0.1,0.2-0.1,0.4,0,0.6c0.2,0.2,0.4,0.4,0.7,0.4C226.4,9.8,226.5,9.7,226.6,9.6z M230.6,9.1
			C230.6,9.1,230.6,9.1,230.6,9.1c0.2-0.1,0.3-0.2,0.4-0.2c0.1-0.1,0.1-0.1,0-0.2c-0.1-0.1-0.1-0.2-0.2-0.2c0,0-0.1,0-0.1,0
			c-0.1,0.1-0.2,0.1-0.3,0.2c0,0-0.1,0.1,0,0.1C230.3,8.9,230.4,9,230.6,9.1C230.5,9.1,230.6,9.1,230.6,9.1z M237.2,14.7
			c-0.1,0-0.1,0.1-0.1,0.1c0,0,0,0.1,0,0.1c0.1,0.2,0.3,0.4,0.4,0.6c0.1,0.1,0.1,0.1,0.2,0c0.1-0.1,0.1-0.2,0-0.3
			c-0.1-0.1-0.2-0.2-0.3-0.4C237.4,14.8,237.3,14.8,237.2,14.7z M225.5,10.6c0.2-0.1,0.4-0.3,0.5-0.5c-0.2-0.1-0.4-0.2-0.5-0.3
			C225.4,9.9,225.4,10.4,225.5,10.6z M219,16.9C219.1,16.9,219.1,16.9,219,16.9c0.1-0.1,0.1-0.1,0.1-0.2c0-0.4,0-0.7-0.1-1.1
			c0-0.1-0.1-0.2-0.2-0.2c0,0,0,0.1,0,0.1c0,0.3,0.1,0.6,0.1,0.9c0,0.1,0,0.2,0,0.3C219,16.8,219,16.9,219,16.9z M227.5,8.1
			C227.5,8.1,227.5,8.1,227.5,8.1c0.1,0.1,0.2,0.2,0.3,0.3c0,0,0.1,0,0.1,0c0.1-0.1,0.2-0.2,0.3-0.3C227.9,8.1,227.7,8,227.5,8.1z
			 M219.8,17.8c0.1-0.2,0.2-0.5,0.2-0.6c-0.1,0.1-0.3,0.2-0.4,0.2c-0.1,0,0,0.1,0,0.1C219.6,17.7,219.7,17.8,219.8,17.8z
			 M241.4,16.3c-0.1,0-0.2,0.1-0.2,0.2c0,0.1,0.1,0.1,0.1,0.1c0.1,0,0.2-0.1,0.2-0.2C241.5,16.3,241.4,16.3,241.4,16.3z M227.3,8.8
			c0.2-0.1,0.3-0.2,0.2-0.3c0-0.1-0.1-0.1-0.1,0C227.4,8.6,227.4,8.7,227.3,8.8z M233.8,15.3c0.1,0,0.1,0,0.1-0.1
			c0-0.1,0-0.1-0.1-0.1C233.8,15.1,233.8,15.2,233.8,15.3z"/>
		<path class="st2" d="M244.3,41.6c0,1.2-0.4,2.2-1.3,3c-0.3,0.3-0.7,0.5-1.2,0.7c-0.3,0.1-0.6,0.2-0.9,0.2c-0.1,0-0.1,0-0.2-0.1
			c-0.1-0.3-0.2-0.6-0.2-0.9c0,0,0-0.1,0-0.1c-0.1-0.7,0-1.4,0.3-2.1c0.3-0.6,0.7-1.1,1.2-1.5c0.4-0.3,0.9-0.6,1.5-0.7
			c0.1,0,0.2,0,0.3,0c0.2,0,0.2,0,0.3,0.2c0.1,0.2,0.1,0.4,0.2,0.7c0,0.1,0,0.2,0,0.4C244.3,41.3,244.3,41.4,244.3,41.6z"/>
		<path class="st2" d="M237.9,46.3c0,0.5-0.1,1-0.3,1.4c-0.2,0.4-0.4,0.8-0.7,1.2c-0.1,0.1-0.2,0.2-0.4,0.1c-0.5-0.3-1-0.7-1.3-1.2
			c-0.5-0.8-0.7-1.7-0.6-2.6c0-0.5,0.2-1,0.4-1.5c0.1-0.3,0.3-0.5,0.4-0.7c0,0,0,0,0,0c0.2-0.2,0.3-0.2,0.5-0.1
			c0.3,0.2,0.5,0.4,0.7,0.6c0.6,0.5,0.9,1.2,1.1,2C237.8,45.8,237.9,46,237.9,46.3z"/>
		<path class="st2" d="M241.4,51.9c-1,0-1.8-0.2-2.5-0.7c-0.3-0.2-0.6-0.4-0.8-0.7c-0.1-0.1-0.1-0.2-0.2-0.2c-0.1-0.1-0.1-0.2,0-0.3
			c0.1-0.1,0.2-0.2,0.3-0.3c0.5-0.4,1.1-0.7,1.8-0.9c0.7-0.1,1.5-0.1,2.2,0.2c0.7,0.3,1.3,0.7,1.8,1.4c0.1,0.1,0.1,0.2,0,0.3
			c-0.1,0.2-0.3,0.3-0.4,0.4c-0.2,0.2-0.4,0.3-0.6,0.4C242.4,51.8,241.8,51.9,241.4,51.9z"/>
		<path class="st2" d="M233.4,48.8c0,0.7-0.1,1.3-0.5,1.9c-0.3,0.6-0.8,1-1.3,1.4c-0.1,0.1-0.2,0.1-0.4,0c-0.2-0.2-0.4-0.4-0.5-0.6
			c-0.1-0.3-0.3-0.6-0.4-0.9c-0.4-1.2-0.1-2.7,0.6-3.7c0.2-0.3,0.5-0.6,0.8-0.8c0.1,0,0.1-0.1,0.2-0.1c0.1-0.1,0.2-0.1,0.3,0
			c0.2,0.2,0.3,0.4,0.5,0.6c0.3,0.5,0.5,1,0.6,1.6C233.3,48.4,233.3,48.6,233.4,48.8z"/>
		<path class="st2" d="M234.2,52.9c0.7,0,1.3,0.2,1.9,0.5c0.5,0.3,0.9,0.7,1.2,1.2c0.2,0.3,0.4,0.6,0.5,1c0.1,0.2,0,0.2-0.1,0.3
			c-0.2,0.1-0.4,0.2-0.6,0.3c-0.5,0.2-0.9,0.3-1.4,0.3c-0.5,0-1-0.1-1.5-0.3c-0.9-0.3-1.5-1-2-1.8c-0.1-0.2-0.2-0.4-0.2-0.5
			c-0.1-0.2,0-0.3,0.2-0.4c0.3-0.2,0.6-0.3,0.9-0.3C233.5,52.9,233.9,52.9,234.2,52.9z"/>
		<path class="st2" d="M212.6,27.2c0-0.4,0.1-1.1,0.4-1.6c0.1-0.2,0.2-0.2,0.3-0.2c0.2,0.1,0.5,0.1,0.7,0.3c0.3,0.2,0.6,0.4,0.9,0.7
			c0.4,0.4,0.7,0.9,0.9,1.4c0.4,0.9,0.3,1.8,0,2.8c-0.1,0.2-0.1,0.3-0.2,0.5c-0.1,0.2-0.2,0.2-0.4,0.1c-0.2,0-0.3-0.1-0.5-0.2
			c-0.8-0.4-1.4-1-1.8-1.8C212.7,28.6,212.5,28,212.6,27.2z"/>
		<path class="st2" d="M214.1,35.4c0,0.1,0,0.2,0,0.3c0,0.2-0.1,0.2-0.2,0.3c-0.1,0-0.1,0-0.1,0c-0.7,0-1.4-0.1-2.1-0.4
			c-0.7-0.3-1.3-0.9-1.7-1.6c-0.2-0.4-0.4-0.8-0.4-1.2c-0.1-0.3-0.1-0.6-0.1-0.9c0-0.2,0.1-0.2,0.2-0.3c0.3,0,0.5-0.1,0.8,0
			c0.2,0,0.5,0,0.7,0.1c0.8,0.2,1.5,0.6,2,1.3c0.3,0.3,0.5,0.7,0.7,1.1C214,34.5,214.1,35,214.1,35.4z"/>
		<path class="st2" d="M211.2,38.3c0.8,0,1.4,0.2,1.9,0.4c0.8,0.4,1.4,1,1.8,1.8c0.1,0.1,0.1,0.3,0.2,0.4c0.1,0.2,0,0.3-0.2,0.4
			c-0.2,0.1-0.5,0.2-0.8,0.3c-0.5,0.1-1.1,0.2-1.6,0.1c-0.7-0.1-1.4-0.3-1.9-0.8c-0.3-0.2-0.5-0.5-0.7-0.8c-0.2-0.3-0.4-0.7-0.6-1
			c-0.1-0.2-0.1-0.2,0.1-0.3c0.2-0.1,0.4-0.2,0.6-0.3C210.4,38.4,210.9,38.3,211.2,38.3z"/>
		<path class="st2" d="M227.5,49.2c0,0.9-0.2,1.7-0.7,2.3c-0.4,0.6-0.9,1-1.5,1.3c-0.3,0.2-0.6,0.3-1,0.3c-0.2,0-0.3,0-0.3-0.2
			c-0.1-0.2-0.2-0.4-0.2-0.7c-0.1-0.5-0.1-0.9,0-1.3c0.1-0.3,0.2-0.7,0.3-1c0.3-0.7,0.8-1.3,1.4-1.7c0.4-0.2,0.7-0.4,1.1-0.6
			c0.1,0,0.2,0,0.3-0.1c0.2,0,0.3,0,0.4,0.2c0.1,0.2,0.2,0.5,0.2,0.8C227.5,48.8,227.5,49,227.5,49.2z"/>
		<path class="st2" d="M208.4,26.7c-0.7,0-1.2-0.1-1.7-0.3c-0.3-0.1-0.6-0.3-0.9-0.6c-0.2-0.1-0.2-0.2-0.1-0.4
			c0.3-0.5,0.7-0.9,1.1-1.2c0.8-0.6,1.8-0.8,2.8-0.6c0.7,0.1,1.4,0.4,2,0.8c0,0,0,0,0.1,0c0.1,0.1,0.2,0.2,0.1,0.4
			c-0.2,0.3-0.5,0.6-0.7,0.9c-0.3,0.3-0.6,0.5-1,0.7C209.4,26.6,208.8,26.8,208.4,26.7z"/>
		<path class="st2" d="M220.9,47.3c0.4,0,0.7,0,1,0.1c0.1,0,0.2,0.1,0.4,0.1c0.2,0.1,0.2,0.2,0.2,0.3c0,0.2-0.1,0.4-0.1,0.5
			c-0.3,0.8-0.8,1.5-1.6,2c-0.7,0.5-1.6,0.7-2.4,0.6c-0.4,0-0.7-0.1-1-0.2c-0.2-0.1-0.3-0.2-0.2-0.4c0.1-0.6,0.3-1,0.6-1.5
			c0.4-0.5,0.8-0.9,1.4-1.2C219.7,47.5,220.3,47.3,220.9,47.3z"/>
		<path class="st2" d="M203.9,35.3c-0.3,0-0.7,0-1-0.1c-0.1,0-0.2-0.1-0.2-0.3c0-0.2,0-0.3,0.1-0.5c0.1-0.4,0.2-0.8,0.5-1.2
			c0.5-0.9,1.3-1.5,2.2-1.8c0.7-0.2,1.5-0.3,2.2-0.1c0.2,0.1,0.3,0.1,0.2,0.4c-0.1,0.9-0.5,1.7-1.1,2.3c-0.4,0.5-1,0.8-1.6,1
			C204.8,35.2,204.4,35.3,203.9,35.3z"/>
		<path class="st2" d="M229.1,58.4c0,0.1,0,0.2,0,0.3c0,0.1-0.1,0.2-0.2,0.2c-0.2,0-0.5,0.1-0.8,0.1c-0.2,0-0.4,0-0.6-0.1
			c-0.6-0.1-1.2-0.4-1.7-0.8c-0.7-0.5-1.1-1.2-1.3-2c-0.1-0.3-0.2-0.7-0.2-1c0-0.3,0.1-0.4,0.4-0.4c0.7-0.1,1.4,0.1,2.1,0.4
			c0.8,0.4,1.4,1,1.9,1.8c0.2,0.4,0.3,0.8,0.4,1.2C229.1,58.1,229.1,58.2,229.1,58.4C229.1,58.4,229.1,58.4,229.1,58.4z"/>
		<path class="st2" d="M204,43.4c0-0.9,0.2-1.7,0.8-2.4c0.6-0.8,1.4-1.3,2.4-1.5c0.1,0,0.2,0,0.4,0c0.3,0,0.3,0,0.4,0.3
			c0.1,0.2,0.1,0.4,0.1,0.6c0,0.5,0,0.9-0.1,1.4c-0.1,0.6-0.4,1.1-0.8,1.6c-0.4,0.5-0.9,0.9-1.5,1.1c-0.3,0.1-0.6,0.2-0.9,0.3
			c-0.1,0-0.1,0-0.2,0c-0.2,0-0.3,0-0.3-0.2c0-0.1-0.1-0.3-0.1-0.4C204.1,43.8,204.1,43.6,204,43.4z"/>
		<path class="st2" d="M215.6,54.3c0-0.5,0.2-1.1,0.5-1.7c0.1-0.1,0.1-0.2,0.2-0.2c0.1-0.1,0.2-0.1,0.3-0.1c0.1,0.1,0.3,0.1,0.4,0.2
			c0.4,0.3,0.8,0.6,1.1,1c0.4,0.5,0.6,1,0.8,1.6c0.1,0.5,0.1,1.1,0,1.6c-0.1,0.5-0.3,1-0.6,1.4c-0.1,0.2-0.2,0.2-0.4,0.1
			c-0.3-0.1-0.5-0.3-0.8-0.4c-0.4-0.3-0.8-0.7-1.1-1.2C215.8,55.9,215.6,55.2,215.6,54.3z"/>
		<path class="st2" d="M215.2,43.8c0.8,0,1.6,0.3,2.3,0.8c0.1,0.1,0.3,0.2,0.4,0.4c0.1,0.1,0.1,0.2,0,0.4c-0.1,0.2-0.2,0.3-0.4,0.4
			c-0.4,0.4-0.9,0.7-1.4,0.9c-0.4,0.2-0.9,0.3-1.3,0.3c-0.3,0-0.6,0-0.9-0.1c-0.5-0.1-0.9-0.3-1.3-0.6c-0.3-0.2-0.5-0.4-0.7-0.6
			c-0.1-0.2-0.1-0.2,0-0.4c0.2-0.3,0.4-0.5,0.7-0.7C213.3,44.1,214.1,43.8,215.2,43.8z"/>
		<path class="st2" d="M208.4,50.2c0-0.8,0.2-1.5,0.6-2.1c0.3-0.5,0.7-1,1.3-1.3c0.3-0.2,0.4-0.2,0.6,0.1c0.4,0.5,0.6,1.1,0.8,1.7
			c0.1,0.6,0.1,1.3-0.1,1.9c-0.2,0.8-0.7,1.4-1.3,1.9c-0.1,0.1-0.3,0.2-0.5,0.3c-0.1,0.1-0.2,0-0.3,0c-0.1-0.1-0.3-0.3-0.4-0.4
			c-0.1-0.3-0.3-0.5-0.4-0.8C208.5,51,208.4,50.6,208.4,50.2z"/>
		<path class="st2" d="M224.4,19.3c0.1,0,0.1,0.1,0.1,0.1c0,0.1-0.1,0.2-0.2,0.2c-0.1,0-0.2-0.1-0.1-0.2
			C224.2,19.4,224.3,19.3,224.4,19.3z"/>
	</g>
</g>
<g id="Layer_5">
</g>
<g id="CUSTOM_LINE">
	<polyline class="st3" points="223.7,122.1 223.7,143.9 211.9,143.9 	"/>
	<line class="st4" x1="223.7" y1="111.3" x2="223.7" y2="122.1"/>
	<polyline class="st4" points="231.3,110.6 231.3,143.9 243.1,143.9 	"/>
</g>
<g id="Layer_4">
	<text transform="matrix(1 0 0 1 150.008 145.5801)" class="st2 st5 st6">TATTOOERS</text>
	
		<image style="overflow:visible;enable-background:new    ;" width="1877" height="1251" xlink:href="D06031605BDADF6E.png"  transform="matrix(1.994672e-02 0 0 1.994672e-02 300.75 126.3531)">
	</image>
	
		<image style="overflow:visible;enable-background:new    ;" width="1818" height="1240" id="Layer_1_xA0_Image" xlink:href="D06031605BDADF69.png"  transform="matrix(2.341935e-02 0 0 2.341935e-02 108.6702 120.1278)">
	</image>
	<text transform="matrix(1 0 0 1 249.1904 145.6025)" class="st2 st5 st7">SUPPLIERS</text>
</g>
</svg>
