<?xml version="1.0" standalone="no"?>
<!DOCTYPE svg PUBLIC "-//W3C//DTD SVG 20010904//EN"
 "http://www.w3.org/TR/2001/REC-SVG-20010904/DTD/svg10.dtd">
<svg version="1.0" xmlns="http://www.w3.org/2000/svg"
 width="1613.000000pt" height="1613.000000pt" viewBox="0 0 1613.000000 1613.000000"
 preserveAspectRatio="xMidYMid meet">
<metadata>
Created by potrace 1.14, written by Peter Selinger 2001-2017
</metadata>
<g transform="translate(0.000000,1613.000000) scale(0.100000,-0.100000)"
fill="#000000" stroke="none">
<path d="M7499 16126 c-2 -2 -37 -7 -78 -10 -40 -4 -83 -9 -95 -11 -11 -3 -46
-7 -78 -9 -31 -2 -60 -6 -65 -9 -4 -2 -35 -7 -68 -11 -62 -6 -105 -13 -141
-21 -12 -3 -39 -7 -60 -11 -59 -9 -359 -72 -428 -90 -34 -9 -72 -18 -85 -21
-14 -2 -29 -7 -35 -11 -6 -3 -20 -7 -31 -8 -11 -1 -51 -12 -90 -24 -38 -12
-77 -23 -85 -25 -8 -2 -16 -4 -17 -5 -2 -2 -6 -3 -10 -4 -5 -1 -42 -13 -83
-26 -41 -13 -77 -24 -80 -25 -15 -3 -147 -49 -155 -54 -5 -3 -12 -6 -15 -7 -3
0 -18 -6 -33 -12 -16 -7 -48 -17 -73 -23 -24 -6 -44 -15 -44 -20 0 -5 -7 -9
-15 -9 -13 0 -110 -38 -220 -86 -22 -10 -42 -18 -45 -19 -44 -13 -434 -205
-441 -216 -3 -6 -10 -11 -15 -10 -13 0 -80 -33 -149 -74 -33 -20 -73 -42 -90
-50 -16 -9 -39 -21 -50 -28 -11 -6 -42 -26 -70 -43 -27 -17 -65 -40 -82 -50
-18 -10 -33 -23 -33 -28 0 -5 -3 -7 -6 -3 -4 3 -34 -13 -68 -36 -34 -23 -69
-46 -78 -52 -81 -52 -134 -89 -136 -96 -2 -5 -8 -9 -14 -9 -6 0 -24 -11 -42
-25 -39 -32 -42 -34 -93 -69 -24 -16 -43 -33 -43 -37 0 -5 -6 -9 -12 -9 -7 0
-26 -11 -43 -25 -16 -13 -68 -54 -115 -91 -77 -61 -238 -194 -266 -219 -6 -5
-39 -35 -74 -65 -178 -157 -487 -465 -631 -631 -30 -34 -61 -70 -70 -78 -9 -9
-71 -83 -138 -166 -66 -82 -128 -157 -136 -166 -8 -9 -15 -21 -15 -27 0 -5 -4
-12 -9 -14 -8 -2 -38 -41 -127 -163 -8 -11 -41 -58 -74 -105 -33 -47 -63 -90
-68 -95 -5 -6 -11 -15 -13 -20 -2 -6 -34 -55 -70 -110 -111 -168 -139 -213
-139 -224 0 -6 -4 -11 -9 -11 -5 0 -11 -6 -13 -12 -2 -7 -32 -62 -68 -123 -36
-60 -63 -112 -62 -114 2 -2 -1 -7 -6 -10 -10 -6 -42 -65 -43 -78 0 -5 -6 -15
-13 -23 -23 -26 -179 -338 -179 -357 0 -7 -4 -13 -7 -13 -6 0 -48 -85 -55
-110 -2 -4 -34 -78 -65 -145 -34 -76 -64 -149 -115 -280 -31 -82 -61 -159 -65
-170 -30 -71 -104 -291 -105 -310 0 -5 -3 -12 -6 -15 -3 -3 -20 -54 -38 -115
-30 -101 -80 -277 -81 -282 0 -2 0 -4 -1 -5 0 -2 -2 -10 -4 -18 -2 -8 -11 -40
-20 -70 -8 -30 -17 -68 -20 -85 -3 -16 -10 -43 -15 -60 -5 -16 -21 -86 -35
-155 -47 -223 -56 -270 -70 -360 -2 -14 -6 -36 -9 -50 -5 -27 -16 -92 -21
-125 -14 -95 -25 -172 -30 -220 -1 -16 -6 -50 -9 -75 -5 -42 -8 -64 -21 -190
-3 -25 -7 -79 -11 -120 -3 -41 -8 -79 -11 -84 -4 -5 -1 -6 7 -1 9 5 11 4 6 -3
-11 -18 -15 -63 -22 -252 -12 -287 -5 -898 11 -982 2 -10 7 -66 10 -126 4 -59
8 -109 10 -112 2 -3 6 -39 9 -80 4 -41 9 -91 12 -110 3 -19 7 -51 8 -70 8 -74
19 -149 37 -255 10 -60 21 -123 23 -140 7 -48 17 -106 27 -155 5 -25 12 -56
14 -70 23 -114 53 -246 82 -360 18 -74 36 -146 39 -160 3 -13 9 -29 15 -36 5
-6 6 -13 3 -16 -3 -3 4 -34 15 -69 11 -35 31 -104 46 -154 46 -152 145 -445
178 -525 6 -14 11 -27 12 -30 8 -23 55 -142 65 -165 5 -11 34 -81 65 -155 31
-74 89 -202 129 -285 40 -82 79 -165 87 -182 7 -18 17 -33 21 -33 5 0 8 -8 8
-18 0 -10 4 -22 9 -28 5 -5 29 -47 54 -94 59 -113 146 -266 244 -428 13 -20
28 -47 34 -59 7 -13 16 -23 21 -23 4 0 8 -5 8 -10 0 -10 147 -238 160 -250 4
-3 21 -29 40 -58 18 -28 37 -52 41 -52 4 0 11 -10 15 -22 4 -13 10 -25 13 -28
4 -3 34 -41 66 -85 62 -84 196 -256 226 -290 10 -11 46 -54 81 -95 35 -41 72
-86 83 -99 106 -125 439 -470 547 -566 41 -37 140 -126 193 -175 22 -20 42
-36 45 -36 3 -1 19 -14 35 -30 41 -39 123 -107 144 -118 9 -5 22 -18 29 -28 7
-10 18 -18 24 -18 6 0 18 -8 27 -18 9 -9 52 -44 96 -76 44 -33 82 -63 83 -68
2 -4 10 -8 18 -8 8 0 14 -4 14 -10 0 -5 7 -10 15 -10 8 0 15 -4 15 -8 0 -4 15
-16 33 -27 17 -10 34 -22 37 -25 9 -12 310 -210 320 -210 4 0 10 -3 12 -7 4
-10 107 -73 119 -73 5 0 9 -4 9 -10 0 -5 4 -10 10 -10 5 0 47 -22 92 -48 165
-97 532 -285 556 -285 6 0 12 -4 12 -9 0 -4 5 -8 10 -8 6 0 41 -14 78 -32 73
-34 428 -177 452 -182 8 -2 26 -8 40 -13 14 -6 77 -27 140 -48 63 -20 140 -45
170 -55 104 -34 488 -132 605 -154 56 -10 85 -16 108 -20 42 -9 152 -28 177
-32 14 -2 39 -6 55 -8 17 -3 46 -7 65 -10 19 -2 51 -7 70 -10 40 -6 126 -16
185 -21 22 -2 69 -7 105 -12 83 -10 1128 -11 1235 0 82 8 151 16 195 22 14 2
45 6 70 9 71 7 143 17 170 22 14 2 36 6 50 9 13 3 42 7 65 11 22 3 83 14 135
25 52 11 108 22 123 25 28 4 175 39 257 59 11 3 28 7 38 9 9 2 37 10 62 17 25
7 50 14 55 15 28 7 161 45 170 48 6 2 12 3 15 3 3 0 16 5 29 12 13 7 33 14 45
16 28 4 273 89 361 126 11 5 67 27 124 49 229 90 647 292 834 403 43 26 80 47
82 47 14 0 356 220 493 317 56 40 106 73 110 73 4 0 14 9 22 20 8 11 18 20 22
20 10 0 141 101 146 112 2 5 8 8 13 8 9 0 45 28 86 68 13 12 26 22 29 22 3 0
11 6 18 12 7 7 32 29 56 48 24 19 48 40 54 45 6 6 29 25 51 44 286 243 663
630 926 952 30 36 65 80 79 98 14 18 30 38 35 44 37 44 85 106 85 112 0 3 6
12 13 19 6 7 21 25 32 40 11 16 25 33 30 40 22 24 75 105 75 115 0 6 4 11 9
11 5 0 20 17 32 38 13 20 26 39 29 42 12 10 185 281 183 285 -2 3 6 14 17 25
11 11 20 26 20 34 0 8 4 16 8 18 4 2 18 21 31 43 60 100 158 275 181 320 14
28 27 52 30 55 13 13 80 150 73 150 -4 0 -3 4 3 8 6 4 32 52 59 107 63 132 99
209 100 215 0 3 9 19 18 37 9 18 17 39 17 48 0 8 5 15 10 15 6 0 10 8 10 18 0
9 7 30 16 47 15 29 74 171 78 190 3 11 22 61 35 90 13 29 91 242 96 260 1 6 4
17 8 25 3 8 15 47 27 85 13 39 26 79 31 90 8 22 27 82 34 111 3 10 21 75 41
144 49 173 93 353 88 361 -2 4 1 9 7 11 5 2 11 18 11 36 1 18 5 35 10 38 4 3
6 9 3 14 -3 5 -1 19 4 32 5 14 12 40 15 59 3 19 10 57 16 84 5 28 12 61 14 75
3 14 5 27 6 30 1 3 3 10 4 15 1 6 6 35 11 65 10 60 11 69 15 73 1 1 3 16 4 32
2 17 7 50 11 75 4 25 8 55 8 68 1 12 3 22 7 22 3 0 5 10 6 23 0 12 4 51 8 87
27 217 30 311 30 1075 0 765 -7 1050 -29 1223 -3 23 -7 61 -10 84 -3 23 -7 54
-10 68 -3 14 -8 48 -11 75 -4 28 -8 55 -9 60 -6 30 -15 84 -19 110 -3 17 -8
44 -11 60 -4 17 -8 39 -10 50 -4 24 -21 110 -29 145 -12 58 -18 86 -20 100 -1
9 -5 21 -10 28 -4 6 -5 12 -3 12 2 0 -2 26 -10 58 -8 31 -16 66 -18 77 -1 11
-14 61 -28 110 -14 50 -28 104 -33 120 -11 43 -11 45 -13 48 -2 1 -5 13 -8 27
-6 32 -9 42 -16 60 -7 17 -47 148 -52 170 -2 8 -13 41 -24 73 -11 31 -17 57
-14 57 3 0 1 6 -4 13 -6 6 -20 44 -32 82 -13 39 -27 79 -31 90 -5 11 -19 47
-30 80 -22 63 -26 73 -56 145 -11 24 -18 48 -16 52 1 5 -2 8 -8 8 -6 0 -9 3
-8 8 1 8 -1 15 -59 157 -25 61 -51 113 -57 117 -6 4 -8 8 -4 8 12 0 -186 418
-226 475 -12 17 -20 31 -19 32 4 4 -10 38 -17 43 -4 3 -16 23 -27 45 -40 80
-68 130 -75 133 -5 2 -8 9 -8 16 0 7 -10 23 -22 36 -13 14 -22 26 -21 27 4 5
-10 38 -23 53 -12 15 -45 72 -71 121 -7 15 -20 32 -28 39 -8 7 -15 19 -15 26
0 8 -4 14 -10 14 -5 0 -10 5 -10 10 0 9 -216 338 -230 350 -3 3 -17 21 -30 40
-14 19 -32 44 -42 54 -10 11 -18 23 -18 28 0 4 -8 16 -17 26 -10 11 -27 32
-38 47 -21 31 -66 87 -75 95 -3 3 -17 21 -30 40 -13 19 -27 37 -30 40 -3 3
-36 43 -73 88 -37 46 -67 80 -67 75 -1 -4 -8 4 -16 20 -8 15 -19 27 -24 27 -6
0 -10 5 -10 11 0 6 -6 16 -12 23 -7 7 -51 55 -98 107 -180 200 -534 544 -710
689 -23 19 -63 54 -89 77 -25 23 -50 43 -54 43 -4 0 -19 10 -31 23 -13 12 -39
33 -57 47 -18 14 -38 31 -45 38 -7 6 -17 12 -23 12 -6 0 -11 4 -11 8 0 4 -14
16 -30 26 -17 9 -47 33 -68 52 -20 18 -42 34 -49 34 -6 0 -13 4 -15 8 -3 7
-88 69 -154 112 -13 8 -40 27 -61 41 -125 86 -394 252 -468 289 -17 8 -32 17
-35 20 -18 18 -378 199 -384 193 -3 -4 -6 -1 -6 5 0 7 -4 12 -10 12 -5 0 -47
17 -92 38 -141 66 -163 75 -164 71 0 -2 -7 1 -15 7 -8 7 -77 36 -154 66 -77
30 -149 58 -160 63 -11 4 -24 9 -30 11 -5 1 -62 21 -125 43 -63 22 -162 54
-220 71 -58 17 -112 34 -120 37 -8 3 -24 8 -35 10 -11 2 -27 6 -35 10 -8 3
-22 7 -31 9 -8 2 -42 11 -75 19 -32 9 -68 18 -79 20 -11 1 -20 3 -20 5 0 1 -9
3 -20 5 -11 2 -63 13 -115 25 -80 18 -176 38 -310 63 -28 6 -94 15 -155 23
-22 3 -51 8 -65 10 -14 3 -45 7 -70 10 -25 2 -61 7 -80 10 -19 4 -53 9 -75 11
-53 6 -1350 14 -1356 9z"/>
</g>
</svg>
